<svg xmlns="http://www.w3.org/2000/svg" xmlns:xlink="http://www.w3.org/1999/xlink" viewBox="0 0 88.6574 78.1422"><defs><style>.a{fill:#959595;}.b{fill:url(#a);}.c{fill:url(#b);}.d{opacity:0.82;}.e,.f{fill:none;stroke:#fff;stroke-width:2.8346px;}.e{stroke-linejoin:bevel;}.f{stroke-miterlimit:10;}</style><linearGradient id="a" x1="20.1102" y1="13.7763" x2="66.8792" y2="60.5453" gradientUnits="userSpaceOnUse"><stop offset="0" stop-color="#979bde"/><stop offset="0.0608" stop-color="#8388d4"/><stop offset="0.1979" stop-color="#5d63bf"/><stop offset="0.3404" stop-color="#3d45ae"/><stop offset="0.4875" stop-color="#242da1"/><stop offset="0.6412" stop-color="#131c97"/><stop offset="0.8057" stop-color="#081292"/><stop offset="1" stop-color="#050f90"/></linearGradient><linearGradient id="b" x1="22.0041" y1="15.6702" x2="64.9852" y2="58.6513" gradientUnits="userSpaceOnUse"><stop offset="0.3198" stop-color="#050f82"/><stop offset="1" stop-color="#050faf"/></linearGradient></defs><ellipse class="a" cx="44.3287" cy="39.0711" rx="33.5634" ry="32.5705"/><ellipse class="b" cx="43.4947" cy="37.1608" rx="33.5634" ry="32.5705"/><ellipse class="c" cx="43.4947" cy="37.1608" rx="30.845" ry="29.9325"/><g class="d"><path class="e" d="M28.3423,28.8622l25.06.0029L42.4381,40.1772c2.6955-2.4357,11.9033-3.2364,14.4135,5.0912C58.6369,51.1909,54.2879,57.43,48.2737,59.53a19.3468,19.3468,0,0,1-12.5445-.1449A23.421,23.421,0,1,1,66.89,37.2333c-.0015,12.9029-11.0473,23.2631-23.95,23.2616"/><path class="f" d="M35.78,21.19,35.7776,43.431c-.0006,5.2464,2.773,8.0207,6.1948,8.0211h0a6.17,6.17,0,0,0,3.8617-1.35"/></g></svg>