<svg xmlns="http://www.w3.org/2000/svg" xmlns:xlink="http://www.w3.org/1999/xlink" viewBox="0 0 26.1049 26.1049"><defs><style>.a{fill:#050faf;}.b{fill:url(#a);}.c{fill:url(#b);}.d{fill:#050ffc;}.e,.f{fill:none;stroke:#fff;stroke-width:0.9638px;}.e{stroke-linejoin:bevel;}.f{stroke-miterlimit:10;}</style><linearGradient id="a" x1="-2.4589" y1="57.1684" x2="-2.4589" y2="34.1377" gradientTransform="translate(-19.0275 -22.5049) rotate(-45)" gradientUnits="userSpaceOnUse"><stop offset="0" stop-color="#050ffc"/><stop offset="1" stop-color="blue"/></linearGradient><linearGradient id="b" x1="11.492" y1="21.3125" x2="11.492" y2="2.1189" gradientTransform="matrix(1, 0, 0, 1, 0, 0)" xlink:href="#a"/></defs><circle class="a" cx="14.5896" cy="14.5896" r="11.5154"/><rect class="a" x="1.5371" y="10.8773" width="23.0308" height="4.3503" transform="translate(-5.4065 13.0525) rotate(-45)"/><circle class="b" cx="11.5154" cy="11.5154" r="11.5154"/><circle class="c" cx="11.492" cy="11.7157" r="9.5968"/><circle class="d" cx="11.6171" cy="11.5906" r="11.5154"/><path class="e" d="M5.2128,8.0518l10.6217.0013-4.6471,4.7947a3.9913,3.9913,0,0,1,6.1093,2.1579c.7567,2.51-1.0867,5.1547-3.6358,6.0448a8.2,8.2,0,0,1-5.3171-.0614A9.9271,9.9271,0,1,1,21.5515,11.6,10.0816,10.0816,0,0,1,11.4,21.46"/><path class="f" d="M8.3655,4.8l-.0012,9.4271c0,2.2237,1.1754,3.4,2.6257,3.4h0a2.6149,2.6149,0,0,0,1.6368-.5721"/></svg>