<svg id="a7447465-7d97-4f9d-b299-4c4f1e09fb0e" data-name="Layer 1" xmlns="http://www.w3.org/2000/svg" width="248" height="96" viewBox="0 0 248 96"><path d="M2.84,36.19c-.13,4.32-.52,8.84,0,13.16A22.84,22.84,0,0,0,5,57.18a35.09,35.09,0,0,0,6.89,9.37c2.81,2.62,6.34,4.3,9.8,5.92l.67.32v1a1.15,1.15,0,0,1-1.76,1.12s-7-3.26-10.14-6.2A37.6,37.6,0,0,1,2.72,58.59,25.71,25.71,0,0,1,.25,49.8C-.27,45,.16,39.9.31,35c.07-1.87.18-4.12.32-6,.11-1.24.41-2.57,2.47-3a56,56,0,0,0,11.39-3.46c2.68-1.26,6.18-3.31,6.18-3.31.9-.53,1.67-.11,1.67.95v1.55h0a66.5,66.5,0,0,1-7.88,3.72A98.74,98.74,0,0,1,3.29,28.88C3.11,31.32,2.9,33.76,2.84,36.19Z" style="fill:#311b58"/><path d="M50,49.83A25.48,25.48,0,0,1,47.5,58.6a37.32,37.32,0,0,1-7.7,10.17C36.65,71.69,29.68,75,29.68,75a1.13,1.13,0,0,1-1.76-1.09V72.8l.67-.32c3.44-1.59,7-3.3,9.78-5.92a35.47,35.47,0,0,0,6.89-9.37,22.48,22.48,0,0,0,2.18-7.83c.48-4.32.09-8.84,0-13.16-.07-2.43-.26-4.88-.45-7.31a97.48,97.48,0,0,1-11.16-3.33,65.46,65.46,0,0,1-7.85-3.71V20.31a1,1,0,0,1,1.67-1s3.51,2,6.14,3.3a55.39,55.39,0,0,0,11.41,3.47,2.75,2.75,0,0,1,2.45,2.94c.15,1.87.24,4.14.32,6C50.06,39.9,50.51,45,50,49.83Z" style="fill:#311b58"/><path d="M35.44,51.1a3.31,3.31,0,0,1-3.3,3.31H19.07a3.11,3.11,0,0,0,0,6.21H29.49a3.79,3.79,0,1,1,0,7.58h-5.1a2.06,2.06,0,0,0-2.05,2v2.54l-.67-.32c-3.46-1.62-7-3.3-9.8-5.92A35.14,35.14,0,0,1,5,57.16a22.72,22.72,0,0,1-2.19-7.82c-.47-4.32-.08-8.84,0-13.16.06-2.43.27-4.89.45-7.31a98.74,98.74,0,0,0,11.16-3.33,69.8,69.8,0,0,0,7.88-3.72v4.31a2.09,2.09,0,0,0,2,2.09h8.79a3.11,3.11,0,0,1,0,6.21h-14a4.6,4.6,0,0,0,0,9.19h4.18a2.41,2.41,0,0,0-.82,1.75,2.38,2.38,0,0,0,2.32,2.43h7.26A3.3,3.3,0,0,1,35.44,51.1Z" style="fill:#00e8cc"/><path d="M96.21,55.91H80.79l-3.3,9.56H70.7l14.71-40h6.35l14.51,40H99.48ZM82.63,50.55H94.4l-5.83-17h-.08Z" style="fill:#00e8cc"/><path d="M117.62,28.45h-6.68V22.59h6.68Zm0,37h-6.68V35.73h6.68Z" style="fill:#00e8cc"/><path d="M140.22,41.83l-3.16-.11a6.14,6.14,0,0,0-3.27.8,5.24,5.24,0,0,0-2,2.31V65.47H125.1V35.73h6.1l.41,4.18h.09a9.47,9.47,0,0,1,2.86-3.48,6.77,6.77,0,0,1,4.06-1.25,8.38,8.38,0,0,1,1.32.1,6.43,6.43,0,0,1,1.08.23Z" style="fill:#00e8cc"/><g id="a624f2b7-fc4e-4019-9811-ed663a602827" data-name="Ebene 4"><g style="isolation:isolate"><path d="M176,60.25a14.08,14.08,0,0,1-5.22,4,21.26,21.26,0,0,1-9.38,1.77q-7.4,0-12-4.51t-4.59-11.9V41.28q0-7.39,4.34-11.9a15.19,15.19,0,0,1,11.44-4.51q7.2,0,10.87,3.36A15.07,15.07,0,0,1,176,37.57h-6.57a9.92,9.92,0,0,0-2.62-5.43c-1.32-1.27-3.34-1.91-6.09-1.91A8.25,8.25,0,0,0,154,33.29a12.1,12.1,0,0,0-2.5,7.94v8.41a11.62,11.62,0,0,0,2.71,8,9.12,9.12,0,0,0,7.21,3.07,14.71,14.71,0,0,0,5.09-.72,7.18,7.18,0,0,0,2.83-1.73v-8h-8v-5H176Z" style="fill:#50239f"/><path d="M201.21,65.47a17.8,17.8,0,0,1-.5-1.87,16.71,16.71,0,0,1-.32-1.92,12.24,12.24,0,0,1-3.66,3.13A9.62,9.62,0,0,1,191.9,66c-3.06,0-5.42-.78-7.05-2.35a8.63,8.63,0,0,1-2.47-6.58,7.76,7.76,0,0,1,3.36-6.76Q189.08,48,195.39,48h4.86V45.35a4.85,4.85,0,0,0-1.37-3.67,5.64,5.64,0,0,0-4-1.3,6,6,0,0,0-3.79,1.08,3.46,3.46,0,0,0-1.37,2.85H183a8,8,0,0,1,3.36-6.43,13.81,13.81,0,0,1,8.9-2.7,13,13,0,0,1,8.48,2.6q3.17,2.59,3.17,7.63V58.63a24.77,24.77,0,0,0,.24,3.55,16.63,16.63,0,0,0,.81,3.29Zm-7.86-4.81a8.56,8.56,0,0,0,4.14-1,7.19,7.19,0,0,0,2.76-2.47V52.14h-5a6.73,6.73,0,0,0-4.61,1.42A4.4,4.4,0,0,0,189.06,57a3.47,3.47,0,0,0,1.08,2.71A4.62,4.62,0,0,0,193.35,60.66Z" style="fill:#50239f"/><path d="M240,51.59q0,6.63-3,10.53a10.12,10.12,0,0,1-8.55,3.9,10.69,10.69,0,0,1-4.48-.86,9,9,0,0,1-3.27-2.6l-.08,0V76.91h-6.68V35.73h6l.44,3.58a9.17,9.17,0,0,1,8-4.13A9.9,9.9,0,0,1,237,39.47q3,4.29,3,11.55ZM233.35,51a14.73,14.73,0,0,0-1.68-7.51,5.6,5.6,0,0,0-5.17-2.86,6.81,6.81,0,0,0-3.56.88,6.52,6.52,0,0,0-2.32,2.5V57.47a6,6,0,0,0,2.31,2.41,7.28,7.28,0,0,0,3.63.81,5.75,5.75,0,0,0,5.14-2.46,11.76,11.76,0,0,0,1.65-6.64Z" style="fill:#50239f"/></g></g><path d="M47.44,49.36c.48-4.33.09-8.85,0-13.15-.06-2.44-.27-4.88-.45-7.31A97.48,97.48,0,0,1,35.8,25.57,65.46,65.46,0,0,1,28,21.86v6.38h5.22a3.11,3.11,0,0,1,0,6.22h-14a4.6,4.6,0,0,0,0,9.19H23.4a2.32,2.32,0,0,0-.83,1.74,2.37,2.37,0,0,0,2.32,2.43h7.28a3.31,3.31,0,0,1,0,6.61H19.08a3.11,3.11,0,0,0,0,6.22H29.49a3.79,3.79,0,1,1,0,7.57H27.92V73.5h0v-.7l.67-.32c3.44-1.6,7-3.3,9.78-5.92a35.3,35.3,0,0,0,6.89-9.37A22.27,22.27,0,0,0,47.44,49.36Z" style="fill:#50239f"/></svg>