<svg xmlns="http://www.w3.org/2000/svg" xmlns:xlink="http://www.w3.org/1999/xlink" viewBox="0 0 88.6574 78.1422"><defs><style>.a{fill:#959595;}.b{fill:url(#a);}.c{fill:url(#b);}.d{opacity:0.82;}.e,.f{fill:none;stroke:#fff;stroke-width:2.8346px;}.e{stroke-linejoin:bevel;}.f{stroke-miterlimit:10;}</style><linearGradient id="a" x1="20.1102" y1="13.7763" x2="66.8792" y2="60.5453" gradientUnits="userSpaceOnUse"><stop offset="0" stop-color="#979bde"/><stop offset="0.0229" stop-color="#8a8eda"/><stop offset="0.0921" stop-color="#666cce"/><stop offset="0.168" stop-color="#484fc5"/><stop offset="0.2509" stop-color="#2f38bd"/><stop offset="0.3439" stop-color="#1c25b7"/><stop offset="0.4522" stop-color="#0f19b2"/><stop offset="0.5901" stop-color="#0711b0"/><stop offset="0.8584" stop-color="#050faf"/><stop offset="1" stop-color="#050faf"/></linearGradient><radialGradient id="b" cx="43.4947" cy="37.1608" fx="62.59669503334757" fy="56.818405283873965" r="30.2829" gradientTransform="matrix(0.9998, -0.0175, 0.0169, 0.9699, -0.6225, 1.8794)" gradientUnits="userSpaceOnUse"><stop offset="0.1361" stop-color="#474dc9"/><stop offset="0.3484" stop-color="#3c42cc"/><stop offset="0.7222" stop-color="#1e26d3"/><stop offset="1" stop-color="#040dd9"/></radialGradient></defs><ellipse class="a" cx="45.0926" cy="40.9152" rx="33.5634" ry="32.5705"/><ellipse class="b" cx="43.4947" cy="37.1608" rx="33.5634" ry="32.5705"/><ellipse class="c" cx="43.4947" cy="37.1608" rx="30.734" ry="29.8249"/><g class="d"><path class="e" d="M27.9544,28.65l25.7012.003L42.4111,40.2545c2.7645-2.4982,12.2081-3.3193,14.7825,5.2215,1.831,6.0742-2.6294,12.4728-8.7975,14.6267A19.8432,19.8432,0,0,1,35.53,59.9541a24.0207,24.0207,0,1,1,31.9586-22.719c-.0015,13.2334-11.33,23.8588-24.5634,23.8572"/><path class="f" d="M35.5827,20.7806,35.58,43.5916c-.0007,5.3807,2.844,8.226,6.3534,8.2264h0a6.3271,6.3271,0,0,0,3.96-1.3843"/></g></svg>